<svg width="203" height="187" viewBox="0 0 203 187" fill="none" xmlns="http://www.w3.org/2000/svg">
<g filter="url(#filter0_d_281_6)">
<rect x="4" width="195" height="179" fill="#147EFB"/>
<path d="M94.4238 93.7754H76.1133L76.0156 82.5449H90.8594C93.5286 82.5449 95.6608 82.252 97.2559 81.666C98.8509 81.0475 100.007 80.1523 100.723 78.9805C101.471 77.8086 101.846 76.3438 101.846 74.5859C101.846 72.5677 101.471 70.9401 100.723 69.7031C99.974 68.4661 98.7858 67.571 97.1582 67.0176C95.5632 66.4316 93.4961 66.1387 90.957 66.1387H82.5586V124H65.4199V52.9062H90.957C95.3516 52.9062 99.2741 53.3132 102.725 54.127C106.175 54.9082 109.105 56.1126 111.514 57.7402C113.955 59.3678 115.811 61.4186 117.08 63.8926C118.35 66.334 118.984 69.2148 118.984 72.5352C118.984 75.4323 118.366 78.1504 117.129 80.6895C115.892 83.2285 113.825 85.2956 110.928 86.8906C108.063 88.4531 104.141 89.2669 99.1602 89.332L94.4238 93.7754ZM93.7402 124H71.9629L77.8223 110.816H93.7402C96.084 110.816 97.9557 110.458 99.3555 109.742C100.788 108.993 101.813 108.017 102.432 106.812C103.083 105.576 103.408 104.208 103.408 102.711C103.408 100.888 103.099 99.3092 102.48 97.9746C101.895 96.64 100.951 95.6146 99.6484 94.8984C98.3464 94.1497 96.6048 93.7754 94.4238 93.7754H80.0195L80.1172 82.5449H97.3535L101.357 87.0371C106.11 86.8418 109.87 87.5091 112.637 89.0391C115.436 90.569 117.438 92.5872 118.643 95.0938C119.847 97.6003 120.449 100.221 120.449 102.955C120.449 107.61 119.44 111.5 117.422 114.625C115.436 117.75 112.458 120.094 108.486 121.656C104.515 123.219 99.5996 124 93.7402 124ZM130.264 116.285C130.264 113.941 131.11 111.988 132.803 110.426C134.495 108.831 136.676 108.033 139.346 108.033C142.048 108.033 144.229 108.831 145.889 110.426C147.581 111.988 148.428 113.941 148.428 116.285C148.428 118.629 147.581 120.598 145.889 122.193C144.229 123.756 142.048 124.537 139.346 124.537C136.676 124.537 134.495 123.756 132.803 122.193C131.11 120.598 130.264 118.629 130.264 116.285Z" fill="white"/>
</g>
<defs>
<filter id="filter0_d_281_6" x="0" y="0" width="203" height="187" filterUnits="userSpaceOnUse" color-interpolation-filters="sRGB">
<feFlood flood-opacity="0" result="BackgroundImageFix"/>
<feColorMatrix in="SourceAlpha" type="matrix" values="0 0 0 0 0 0 0 0 0 0 0 0 0 0 0 0 0 0 127 0" result="hardAlpha"/>
<feOffset dy="4"/>
<feGaussianBlur stdDeviation="2"/>
<feComposite in2="hardAlpha" operator="out"/>
<feColorMatrix type="matrix" values="0 0 0 0 0 0 0 0 0 0 0 0 0 0 0 0 0 0 0.25 0"/>
<feBlend mode="normal" in2="BackgroundImageFix" result="effect1_dropShadow_281_6"/>
<feBlend mode="normal" in="SourceGraphic" in2="effect1_dropShadow_281_6" result="shape"/>
</filter>
</defs>
</svg>
