<?xml version="1.0" encoding="UTF-8"?>
<!DOCTYPE svg PUBLIC "-//W3C//DTD SVG 1.1//EN" "http://www.w3.org/Graphics/SVG/1.1/DTD/svg11.dtd">
<svg xmlns="http://www.w3.org/2000/svg" version="1.1" width="1268px" height="1416px" style="shape-rendering:geometricPrecision; text-rendering:geometricPrecision; image-rendering:optimizeQuality; fill-rule:evenodd; clip-rule:evenodd" xmlns:xlink="http://www.w3.org/1999/xlink">
<g><path style="opacity:0.016" fill="#b16066" d="M 872.5,37.5 C 858.779,36.2087 844.779,36.2087 830.5,37.5C 830.918,36.7784 831.584,36.2784 832.5,36C 845.167,35.3333 857.833,35.3333 870.5,36C 871.416,36.2784 872.082,36.7784 872.5,37.5 Z"/></g>
<g><path style="opacity:0.973" fill="#fe3d02" d="M 872.5,37.5 C 880.507,37.3336 888.507,37.5003 896.5,38C 897.308,38.3076 897.975,38.8076 898.5,39.5C 906.952,40.1411 915.285,41.4744 923.5,43.5C 924.988,45.5772 926.988,46.5772 929.5,46.5C 931.523,50.2431 933.19,54.2431 934.5,58.5C 935.167,63.1667 935.833,67.8333 936.5,72.5C 937.262,73.6283 937.929,74.7949 938.5,76C 937.254,89.5253 937.254,102.859 938.5,116C 936.968,125.754 935.634,135.587 934.5,145.5C 933.19,149.757 931.523,153.757 929.5,157.5C 926.411,157.906 923.745,159.24 921.5,161.5C 919.59,162.548 917.756,162.548 916,161.5C 915.667,162.5 915.333,163.5 915,164.5C 907.917,162.823 901.084,163.49 894.5,166.5C 887.291,166.07 879.957,165.737 872.5,165.5C 870.473,165.338 868.473,165.505 866.5,166C 867.056,166.383 867.389,166.883 867.5,167.5C 857.519,167.502 847.519,167.502 837.5,167.5C 837.389,166.883 837.056,166.383 836.5,166C 834.527,165.505 832.527,165.338 830.5,165.5C 824.934,166.045 819.768,166.379 815,166.5C 811.255,165.703 807.421,165.203 803.5,165C 803.833,164.667 804.167,164.333 804.5,164C 799.511,163.501 794.511,163.334 789.5,163.5C 788.082,161.692 786.082,161.025 783.5,161.5C 780.195,160.715 777.195,159.215 774.5,157C 774.833,156.667 775.167,156.333 775.5,156C 772.833,154 770.5,151.667 768.5,149C 768.833,148 769.167,147 769.5,146C 767.996,144.663 766.996,142.996 766.5,141C 767.46,137.27 767.793,133.437 767.5,129.5C 767.869,127.007 767.203,126.34 765.5,127.5C 765.408,110.085 765.408,93.0849 765.5,76.5C 766.833,76.5 767.5,75.8333 767.5,74.5C 767.353,70.4022 767.02,66.5689 766.5,63C 768.43,57.1957 770.93,51.6957 774,46.5C 774.333,46.8333 774.667,47.1667 775,47.5C 778.191,43.4896 782.358,41.823 787.5,42.5C 788.833,42.5 789.5,41.8333 789.5,40.5C 794.5,40.5 799.5,40.5 804.5,40.5C 808.47,39.1091 812.47,38.1091 816.5,37.5C 821.167,37.5 825.833,37.5 830.5,37.5C 844.779,36.2087 858.779,36.2087 872.5,37.5 Z"/></g>
<g><path style="opacity:0.039" fill="#a85f68" d="M 816.5,37.5 C 812.47,38.1091 808.47,39.1091 804.5,40.5C 804.5,39.5 804.5,38.5 804.5,37.5C 808.5,37.5 812.5,37.5 816.5,37.5 Z"/></g>
<g><path style="opacity:0.071" fill="#7b575a" d="M 789.5,40.5 C 789.5,41.8333 788.833,42.5 787.5,42.5C 787.5,41.1667 788.167,40.5 789.5,40.5 Z"/></g>
<g><path style="opacity:1" fill="#ff8a65" d="M 839.5,74.5 C 838.292,73.7659 836.959,73.4326 835.5,73.5C 835.5,92.5 835.5,111.5 835.5,130.5C 834.168,121.023 833.501,111.19 833.5,101C 833.833,91.1667 834.167,81.3333 834.5,71.5C 836.759,71.7845 838.426,72.7845 839.5,74.5 Z"/></g>
<g><path style="opacity:1" fill="#fffaf9" d="M 839.5,74.5 C 853.718,83.1062 868.051,91.4395 882.5,99.5C 882.762,100.978 882.429,102.311 881.5,103.5C 878.569,104.877 875.903,106.544 873.5,108.5C 862.019,115.593 850.352,122.76 838.5,130C 837.552,130.483 836.552,130.649 835.5,130.5C 835.5,111.5 835.5,92.5 835.5,73.5C 836.959,73.4326 838.292,73.7659 839.5,74.5 Z"/></g>
<g><path style="opacity:0.071" fill="#825959" d="M 767.5,74.5 C 767.5,75.8333 766.833,76.5 765.5,76.5C 765.5,75.1667 766.167,74.5 767.5,74.5 Z"/></g>
<g><path style="opacity:0.994" fill="#4343bf" d="M 293.5,203.5 C 288.833,203.5 284.167,203.5 279.5,203.5C 279.5,172.833 279.5,142.167 279.5,111.5C 237.5,111.5 195.5,111.5 153.5,111.5C 149.03,110.514 144.363,110.181 139.5,110.5C 139.5,106.167 139.5,101.833 139.5,97.5C 190.833,97.5 242.167,97.5 293.5,97.5C 293.5,132.833 293.5,168.167 293.5,203.5 Z"/></g>
<g><path style="opacity:1" fill="#ff9d82" d="M 882.5,99.5 C 883.649,99.7911 884.316,100.624 884.5,102C 884.167,102.833 883.833,103.667 883.5,104.5C 880.258,106.14 876.924,107.473 873.5,108.5C 875.903,106.544 878.569,104.877 881.5,103.5C 882.429,102.311 882.762,100.978 882.5,99.5 Z"/></g>
<g><path style="opacity:0.994" fill="#3abbf7" d="M 139.5,110.5 C 143.634,111.485 147.968,111.818 152.5,111.5C 152.169,142.338 152.502,173.005 153.5,203.5C 195.5,203.5 237.5,203.5 279.5,203.5C 284.167,203.5 288.833,203.5 293.5,203.5C 293.5,211.167 293.5,218.833 293.5,226.5C 239.262,226.169 185.095,226.503 131,227.5C 130.5,188.501 130.333,149.501 130.5,110.5C 133.5,110.5 136.5,110.5 139.5,110.5 Z"/></g>
<g><path style="opacity:1" fill="#418df5" d="M 139.5,110.5 C 144.363,110.181 149.03,110.514 153.5,111.5C 153.5,142.167 153.5,172.833 153.5,203.5C 152.502,173.005 152.169,142.338 152.5,111.5C 147.968,111.818 143.634,111.485 139.5,110.5 Z"/></g>
<g><path style="opacity:1" fill="#4b4dfe" d="M 153.5,111.5 C 195.5,111.5 237.5,111.5 279.5,111.5C 279.5,142.167 279.5,172.833 279.5,203.5C 237.5,203.5 195.5,203.5 153.5,203.5C 153.5,172.833 153.5,142.167 153.5,111.5 Z"/></g>
<g><path style="opacity:0.071" fill="#765657" d="M 767.5,129.5 C 766.5,129.167 765.833,128.5 765.5,127.5C 767.203,126.34 767.869,127.007 767.5,129.5 Z"/></g>
<g><path style="opacity:1" fill="#9da0fb" d="M 200.5,127.5 C 199.167,127.5 197.833,127.5 196.5,127.5C 196.5,147.5 196.5,167.5 196.5,187.5C 195.503,166.673 195.169,145.673 195.5,124.5C 197.664,124.721 199.33,125.721 200.5,127.5 Z"/></g>
<g><path style="opacity:1" fill="#e6eef6" d="M 200.5,127.5 C 200.721,128.735 201.388,129.735 202.5,130.5C 206.346,132.716 210.346,134.383 214.5,135.5C 214.48,137.143 215.147,138.476 216.5,139.5C 219.981,141.721 223.648,143.388 227.5,144.5C 227.976,146.993 229.31,148.993 231.5,150.5C 234.601,151.607 237.601,152.94 240.5,154.5C 242.559,155.951 243.559,157.951 243.5,160.5C 239.513,160.011 237.18,161.678 236.5,165.5C 233.418,166.13 230.418,167.13 227.5,168.5C 223.173,171.492 218.839,174.492 214.5,177.5C 212.955,178.452 211.288,178.785 209.5,178.5C 209.52,180.143 208.853,181.476 207.5,182.5C 204.019,184.721 200.352,186.388 196.5,187.5C 196.5,167.5 196.5,147.5 196.5,127.5C 197.833,127.5 199.167,127.5 200.5,127.5 Z"/></g>
<g><path style="opacity:1" fill="#a2a5fb" d="M 205.5,142.5 C 205.168,152.19 205.502,161.856 206.5,171.5C 207.265,170.388 208.265,169.721 209.5,169.5C 209.5,170.5 209.5,171.5 209.5,172.5C 207.833,172.5 206.167,172.5 204.5,172.5C 204.173,162.319 204.506,152.319 205.5,142.5 Z"/></g>
<g><path style="opacity:1" fill="#5655fe" d="M 205.5,142.5 C 212.022,147.737 219.022,152.404 226.5,156.5C 227.429,157.689 227.762,159.022 227.5,160.5C 224.436,160.928 221.436,161.594 218.5,162.5C 218.52,164.143 217.853,165.476 216.5,166.5C 214.061,167.407 211.728,168.407 209.5,169.5C 208.265,169.721 207.265,170.388 206.5,171.5C 205.502,161.856 205.168,152.19 205.5,142.5 Z"/></g>
<g><path style="opacity:0.991" fill="#302e41" d="M 577.5,214.5 C 577.672,213.508 577.338,212.842 576.5,212.5C 576.5,212.167 576.5,211.833 576.5,211.5C 576.5,210.833 576.167,210.5 575.5,210.5C 574.886,208.277 573.552,206.611 571.5,205.5C 565.679,213.903 557.679,217.069 547.5,215C 541.219,212.861 535.552,209.695 530.5,205.5C 530.167,205.667 529.833,205.833 529.5,206C 532.833,210.333 536.167,214.667 539.5,219C 529.051,215.453 518.718,211.287 508.5,206.5C 511.281,209.8 514.614,213.3 518.5,217C 509.051,217.617 500.718,214.783 493.5,208.5C 490.809,224.067 488.642,239.733 487,255.5C 482.688,250.142 477.521,249.142 471.5,252.5C 470.504,252.586 469.671,252.252 469,251.5C 467.682,248.523 466.182,245.69 464.5,243C 465.634,241.984 465.301,241.317 463.5,241C 463.833,240 464.167,239 464.5,238C 463.5,235.667 462.5,233.333 461.5,231C 461.706,224.547 461.873,217.714 462,210.5C 462.451,203.362 464.451,196.695 468,190.5C 470.067,187.93 472.567,185.93 475.5,184.5C 486.848,161.493 505.182,152.326 530.5,157C 546.472,160.982 561.139,167.649 574.5,177C 579.585,181.336 582.418,186.836 583,193.5C 583.719,203.559 583.219,213.559 581.5,223.5C 580.533,220.237 579.199,217.237 577.5,214.5 Z"/></g>
<g><path style="opacity:0.039" fill="#b1606a" d="M 783.5,161.5 C 786.082,161.025 788.082,161.692 789.5,163.5C 787.302,163.125 785.302,162.458 783.5,161.5 Z"/></g>
<g><path style="opacity:0.071" fill="#935956" d="M 830.5,165.5 C 832.527,165.338 834.527,165.505 836.5,166C 837.056,166.383 837.389,166.883 837.5,167.5C 834.612,168.01 832.279,167.344 830.5,165.5 Z"/></g>
<g><path style="opacity:0.039" fill="#a75b5d" d="M 872.5,165.5 C 871.448,167.256 869.781,167.923 867.5,167.5C 867.389,166.883 867.056,166.383 866.5,166C 868.473,165.505 870.473,165.338 872.5,165.5 Z"/></g>
<g><path style="opacity:0.993" fill="#e6e6e6" d="M 1267.5,196.5 C 1267.5,231.167 1267.5,265.833 1267.5,300.5C 1265.35,304.811 1262.02,307.978 1257.5,310C 1189.6,310.168 1121.76,310.668 1054,311.5C 1052.05,309.819 1050.05,309.152 1048,309.5C 1046.85,307.356 1045.35,305.523 1043.5,304C 1043,302.5 1042.5,301 1042,299.5C 1041.33,265.5 1041.33,231.5 1042,197.5C 1043.93,191.902 1047.76,188.402 1053.5,187C 1121.17,186.333 1188.83,186.333 1256.5,187C 1261.62,188.627 1265.28,191.793 1267.5,196.5 Z"/></g>
<g><path style="opacity:0.992" fill="#fdb7b7" d="M 575.5,210.5 C 576.167,210.5 576.5,210.833 576.5,211.5C 576.5,211.833 576.5,212.167 576.5,212.5C 576.328,213.492 576.662,214.158 577.5,214.5C 581.927,232.279 578.927,248.613 568.5,263.5C 567.5,263.833 566.833,264.5 566.5,265.5C 556.509,276.365 544.343,283.032 530,285.5C 524.887,284.294 519.72,284.294 514.5,285.5C 508.228,283.134 501.562,280.967 494.5,279C 494.833,278.667 495.167,278.333 495.5,278C 491.019,276.349 487.353,273.683 484.5,270C 479.231,265.492 474.898,259.659 471.5,252.5C 477.521,249.142 482.688,250.142 487,255.5C 488.642,239.733 490.809,224.067 493.5,208.5C 500.718,214.783 509.051,217.617 518.5,217C 514.614,213.3 511.281,209.8 508.5,206.5C 518.718,211.287 529.051,215.453 539.5,219C 536.167,214.667 532.833,210.333 529.5,206C 529.833,205.833 530.167,205.667 530.5,205.5C 535.552,209.695 541.219,212.861 547.5,215C 557.679,217.069 565.679,213.903 571.5,205.5C 573.552,206.611 574.886,208.277 575.5,210.5 Z"/></g>
<g><path style="opacity:1" fill="#fefefe" d="M 1130.5,216.5 C 1132.86,216.337 1135.19,216.503 1137.5,217C 1155.6,225.799 1173.43,234.966 1191,244.5C 1191.67,247.167 1191.67,249.833 1191,252.5C 1173.34,262.08 1155.51,271.247 1137.5,280C 1132.62,281.718 1129.45,280.218 1128,275.5C 1127.33,256.833 1127.33,238.167 1128,219.5C 1129.04,218.627 1129.88,217.627 1130.5,216.5 Z"/></g>
<g><path style="opacity:0.016" fill="#be6367" d="M 568.5,263.5 C 569.833,264.167 569.833,264.167 568.5,263.5 Z"/></g>
<g><path style="opacity:0.016" fill="#be6367" d="M 566.5,265.5 C 567.833,266.167 567.833,266.167 566.5,265.5 Z"/></g>
<g><path style="opacity:0.996" fill="#e5e5e5" d="M 571.5,327.5 C 567.174,350.113 563.174,372.779 559.5,395.5C 542.936,391.952 526.269,391.619 509.5,394.5C 498.911,373.654 488.577,352.654 478.5,331.5C 483.572,321.909 488.906,312.409 494.5,303C 513.167,302.333 531.833,302.333 550.5,303C 557.389,311.291 564.389,319.458 571.5,327.5 Z"/></g>
<g><path style="opacity:0.995" fill="#2f2e41" d="M 571.5,327.5 C 590.548,334.295 609.548,341.295 628.5,348.5C 642.126,345.729 651.626,350.729 657,363.5C 666.746,390.405 675.08,417.739 682,445.5C 683.301,451.922 682.301,457.922 679,463.5C 678.333,464.833 678.333,466.167 679,467.5C 684.894,472.886 689.394,479.219 692.5,486.5C 690.935,489.566 689.602,492.733 688.5,496C 690.636,500.149 692.803,504.315 695,508.5C 696.303,518.448 695.303,528.114 692,537.5C 685.336,541.036 678.669,543.702 672,545.5C 662.212,549.263 652.379,552.93 642.5,556.5C 650.005,574.182 656.005,592.349 660.5,611C 658.958,614.035 658.458,617.202 659,620.5C 662.768,625.035 665.768,630.035 668,635.5C 670.19,649.762 671.69,664.095 672.5,678.5C 670.692,678.491 669.025,678.991 667.5,680C 669.108,683.828 670.108,687.828 670.5,692C 669.031,699.583 668.364,707.25 668.5,715C 668.163,812.628 671.163,910.128 677.5,1007.5C 677.437,1023.52 677.937,1039.52 679,1055.5C 679.101,1058.92 679.934,1062.09 681.5,1065C 678.552,1070.89 675.885,1076.89 673.5,1083C 673.658,1085.15 674.492,1086.98 676,1088.5C 676.21,1094.72 675.044,1100.72 672.5,1106.5C 667.88,1107.49 663.214,1107.83 658.5,1107.5C 647.833,1107.5 637.167,1107.5 626.5,1107.5C 623.5,1107.5 620.5,1107.5 617.5,1107.5C 617.986,1105.19 617.986,1103.03 617.5,1101C 619.227,1099.26 619.894,1097.42 619.5,1095.5C 615.985,1095.53 613.319,1093.7 611.5,1090C 618.207,1085.04 619.374,1079.21 615,1072.5C 613.555,1045.28 612.388,1018.12 611.5,991C 612.622,966.519 612.622,942.186 611.5,918C 598.613,878.23 586.613,838.896 575.5,800C 574.87,798.108 573.87,796.441 572.5,795C 572.833,794.667 573.167,794.333 573.5,794C 569.171,780.189 564.837,766.689 560.5,753.5C 553.121,810.368 545.788,867.201 538.5,924C 542.687,970.415 546.521,1016.91 550,1063.5C 550.323,1068.82 552.156,1073.49 555.5,1077.5C 552.151,1088.27 549.817,1099.27 548.5,1110.5C 544.167,1110.5 539.833,1110.5 535.5,1110.5C 525.167,1110.5 514.833,1110.5 504.5,1110.5C 500.405,1106.77 496.739,1102.6 493.5,1098C 497.264,1094.3 499.264,1089.8 499.5,1084.5C 496.185,1084.03 493.851,1082.2 492.5,1079C 493.648,1076.22 493.314,1073.56 491.5,1071C 491.665,1069.88 491.998,1068.72 492.5,1067.5C 491.99,1062.54 490.99,1057.7 489.5,1053C 490.097,1051.94 490.43,1050.77 490.5,1049.5C 489.859,1042.57 488.859,1035.74 487.5,1029C 488.334,1026.29 488,1023.62 486.5,1021C 487.775,1016.91 487.441,1012.91 485.5,1009C 486.097,1007.94 486.43,1006.77 486.5,1005.5C 485.446,996.189 484.613,986.856 484,977.5C 482.447,974.675 482.281,971.842 483.5,969C 483.151,965.564 482.484,962.231 481.5,959C 481.243,957.629 481.577,956.129 482.5,954.5C 481.931,947.231 480.931,940.065 479.5,933C 479.243,931.629 479.577,930.129 480.5,928.5C 479.591,920.182 478.757,911.849 478,903.5C 477.336,898.776 476.169,893.943 474.5,889C 475.214,887.657 474.88,886.324 473.5,885C 474.683,882.845 474.35,880.845 472.5,879C 472.957,878.586 473.291,878.086 473.5,877.5C 472.87,873.875 471.87,870.375 470.5,867C 471.214,865.657 470.88,864.324 469.5,863C 470.683,860.845 470.35,858.845 468.5,857C 468.957,856.586 469.291,856.086 469.5,855.5C 468.87,851.875 467.87,848.375 466.5,845C 467.214,843.657 466.88,842.324 465.5,841C 466.022,840.439 466.355,839.772 466.5,839C 466.117,836.036 465.117,833.37 463.5,831C 464.313,828.148 464.313,825.148 463.5,822C 462.816,819.07 461.816,816.07 460.5,813C 460.727,810.631 460.893,808.131 461,805.5C 463.25,800.665 465.75,795.999 468.5,791.5C 463.21,783.705 458.544,775.539 454.5,767C 454.539,760.57 455.206,754.237 456.5,748C 452.355,744.185 448.522,740.019 445,735.5C 444.644,731.854 443.811,728.354 442.5,725C 444.025,714.561 444.359,704.061 443.5,693.5C 437.4,692.142 431.4,690.475 425.5,688.5C 425.67,687.178 425.337,686.011 424.5,685C 425.958,681.147 426.958,677.147 427.5,673C 427.355,672.228 427.022,671.561 426.5,671C 428.595,661.607 430.262,652.273 431.5,643C 431.355,642.228 431.022,641.561 430.5,641C 433.278,626.959 435.611,612.792 437.5,598.5C 436.998,597.284 436.665,596.117 436.5,595C 438.065,591.189 439.065,587.189 439.5,583C 439.355,582.228 439.022,581.561 438.5,581C 440.244,578.037 440.744,574.871 440,571.5C 419.337,560.004 399.004,548.004 379,535.5C 374.527,523.759 374.527,512.093 379,500.5C 380.5,499 382,497.5 383.5,496C 381.317,491.251 379.984,486.251 379.5,481C 380.824,477.183 382.157,473.016 383.5,468.5C 382.529,467.038 382.862,465.705 384.5,464.5C 383.529,463.038 383.862,461.705 385.5,460.5C 384.529,459.038 384.862,457.705 386.5,456.5C 390.995,437.342 396.329,418.508 402.5,400C 406.592,385.028 411.425,370.528 417,356.5C 418.458,354.04 420.291,351.873 422.5,350C 435.607,344.614 448.607,338.947 461.5,333C 467.199,332.688 472.866,332.188 478.5,331.5C 488.577,352.654 498.911,373.654 509.5,394.5C 460.459,409.719 436.293,443.052 437,494.5C 442.267,530.248 461.1,555.914 493.5,571.5C 492.404,576.38 491.071,581.214 489.5,586C 491.311,604.567 501.311,611.901 519.5,608C 530.839,601.148 533.839,591.648 528.5,579.5C 538.005,579.912 547.338,578.912 556.5,576.5C 558.315,577.63 560.315,578.296 562.5,578.5C 560.752,587.573 558.752,596.573 556.5,605.5C 561.167,605.5 565.833,605.5 570.5,605.5C 569.166,596.828 567.832,588.161 566.5,579.5C 572.882,579.206 578.549,577.039 583.5,573C 585.436,572.187 587.436,571.687 589.5,571.5C 587.569,562.711 585.236,554.044 582.5,545.5C 581.27,541.747 580.27,537.914 579.5,534C 579.833,533.167 580.167,532.333 580.5,531.5C 597.591,515.739 614.257,499.739 630.5,483.5C 634.5,481.5 634.5,479.5 630.5,477.5C 622.551,464.158 617.051,449.825 614,434.5C 600.733,414.744 582.566,401.744 559.5,395.5C 563.174,372.779 567.174,350.113 571.5,327.5 Z M 630.5,477.5 C 634.5,479.5 634.5,481.5 630.5,483.5C 630.5,481.5 630.5,479.5 630.5,477.5 Z"/></g>
<g><path style="opacity:0.998" fill="#e6e5e5" d="M 1087.5,330.5 C 1132.17,330.333 1176.83,330.5 1221.5,331C 1233.97,334.116 1237.81,341.616 1233,353.5C 1230.36,356.317 1227.36,358.65 1224,360.5C 1177.67,359.167 1131.33,359.167 1085,360.5C 1074.55,355.676 1071.55,348.009 1076,337.5C 1078.94,333.456 1082.78,331.122 1087.5,330.5 Z"/></g>
<g><path style="opacity:1" fill="#6c63fe" d="M 559.5,395.5 C 582.566,401.744 600.733,414.744 614,434.5C 617.051,449.825 622.551,464.158 630.5,477.5C 630.5,479.5 630.5,481.5 630.5,483.5C 614.257,499.739 597.591,515.739 580.5,531.5C 580.167,532.333 579.833,533.167 579.5,534C 580.27,537.914 581.27,541.747 582.5,545.5C 571.065,537.882 560.565,538.882 551,548.5C 544.945,559.471 546.779,568.804 556.5,576.5C 547.338,578.912 538.005,579.912 528.5,579.5C 516.43,578.566 504.764,575.899 493.5,571.5C 461.1,555.914 442.267,530.248 437,494.5C 436.293,443.052 460.459,409.719 509.5,394.5C 526.269,391.619 542.936,391.952 559.5,395.5 Z"/></g>
<g><path style="opacity:1" fill="#fcfcfe" d="M 519.5,448.5 C 521.199,448.34 522.866,448.506 524.5,449C 546.011,460.256 567.677,471.256 589.5,482C 593.753,485.42 594.587,489.587 592,494.5C 569.734,506.383 547.234,517.883 524.5,529C 520.048,529.86 516.548,528.36 514,524.5C 513.333,501.167 513.333,477.833 514,454.5C 515.36,451.977 517.193,449.977 519.5,448.5 Z"/></g>
<g><path style="opacity:0.998" fill="#e6e6e6" d="M 1267.5,465.5 C 1267.5,500.5 1267.5,535.5 1267.5,570.5C 1264.32,575.841 1259.66,579.007 1253.5,580C 1187.83,580.667 1122.17,580.667 1056.5,580C 1054.57,579.749 1052.73,579.249 1051,578.5C 1050.67,578.833 1050.33,579.167 1050,579.5C 1047.1,576.983 1044.93,574.483 1043.5,572C 1042.5,569.667 1041.5,567.333 1040.5,565C 1041.33,532.572 1041.83,500.072 1042,467.5C 1043.35,462.815 1046.18,459.315 1050.5,457C 1118.79,455.347 1187.12,455.013 1255.5,456C 1261.18,457.194 1265.18,460.36 1267.5,465.5 Z"/></g>
<g><path style="opacity:1" fill="#fefefe" d="M 1130.5,486.5 C 1132.53,486.338 1134.53,486.505 1136.5,487C 1155.09,495.878 1173.26,505.378 1191,515.5C 1191.71,517.899 1191.54,520.232 1190.5,522.5C 1173,531.947 1155.34,541.114 1137.5,550C 1133.91,552.247 1130.74,551.747 1128,548.5C 1127.33,528.833 1127.33,509.167 1128,489.5C 1129.04,488.627 1129.88,487.627 1130.5,486.5 Z"/></g>
<g><path style="opacity:1" fill="#fcb6b7" d="M 582.5,545.5 C 585.236,554.044 587.569,562.711 589.5,571.5C 587.436,571.687 585.436,572.187 583.5,573C 578.549,577.039 572.882,579.206 566.5,579.5C 565.041,579.567 563.708,579.234 562.5,578.5C 560.315,578.296 558.315,577.63 556.5,576.5C 546.779,568.804 544.945,559.471 551,548.5C 560.565,538.882 571.065,537.882 582.5,545.5 Z"/></g>
<g><path style="opacity:0.978" fill="#818083" d="M 73.5,551.5 C 74.8275,556.301 75.8275,561.134 76.5,566C 75.8431,572.791 74.1764,579.291 71.5,585.5C 67.0048,588.724 62.0048,590.891 56.5,592C 51.6918,591.928 47.1918,592.761 43,594.5C 41.7303,592.422 40.2303,592.088 38.5,593.5C 36.6214,593.607 36.2881,593.107 37.5,592C 35.3191,590.652 33.6524,588.818 32.5,586.5C 29.9331,581.478 28.2664,576.478 27.5,571.5C 28.2747,566.221 29.7747,560.888 32,555.5C 34.6506,553.35 37.1506,551.017 39.5,548.5C 44.8919,546.269 50.3919,544.603 56,543.5C 61.313,544.754 66.4797,546.42 71.5,548.5C 72.6119,549.265 73.2786,550.265 73.5,551.5 Z"/></g>
<g><path style="opacity:0.97" fill="#818285" d="M 132.5,551.5 C 134.797,554.942 136.13,558.775 136.5,563C 136.008,567.371 135.842,571.871 136,576.5C 134.983,578.376 134.149,580.376 133.5,582.5C 130.601,585.098 127.601,587.431 124.5,589.5C 115.321,593.809 106.321,593.476 97.5,588.5C 94.1242,586.114 91.9576,582.781 91,578.5C 90.2917,577.619 89.4584,576.953 88.5,576.5C 88.5,576.167 88.5,575.833 88.5,575.5C 87.7633,556.399 96.9299,545.732 116,543.5C 120.975,544.785 125.809,546.451 130.5,548.5C 131.612,549.265 132.279,550.265 132.5,551.5 Z"/></g>
<g><path style="opacity:0.981" fill="#5d5d60" d="M 73.5,551.5 C 76.8467,553.186 79.18,555.853 80.5,559.5C 82.6585,564.625 83.6585,569.959 83.5,575.5C 85.1667,575.5 86.8333,575.5 88.5,575.5C 88.5,575.833 88.5,576.167 88.5,576.5C 85.8559,576.84 83.5225,576.173 81.5,574.5C 79.8666,585.114 74.1999,592.447 64.5,596.5C 59.1667,596.5 53.8333,596.5 48.5,596.5C 46.8333,596.5 45.1667,596.5 43.5,596.5C 41.7056,595.767 40.0389,594.767 38.5,593.5C 40.2303,592.088 41.7303,592.422 43,594.5C 47.1918,592.761 51.6918,591.928 56.5,592C 62.0048,590.891 67.0048,588.724 71.5,585.5C 74.1764,579.291 75.8431,572.791 76.5,566C 75.8275,561.134 74.8275,556.301 73.5,551.5 Z"/></g>
<g><path style="opacity:1" fill="#cccecf" d="M 52.5,557.5 C 64.8867,558.046 70.0534,564.38 68,576.5C 64.0583,583.383 58.225,585.716 50.5,583.5C 43.1436,580.111 40.6436,574.445 43,566.5C 45.0777,562.253 48.2444,559.253 52.5,557.5 Z"/></g>
<g><path style="opacity:1" fill="#cdcfd0" d="M 110.5,558.5 C 124.594,557.926 130.594,564.593 128.5,578.5C 124.619,581.271 120.286,583.271 115.5,584.5C 111.107,583.804 107.44,581.804 104.5,578.5C 103.167,573.5 103.167,568.5 104.5,563.5C 106.259,561.395 108.259,559.729 110.5,558.5 Z"/></g>
<g><path style="opacity:0.978" fill="#5f5c60" d="M 132.5,551.5 C 133.552,551.351 134.552,551.517 135.5,552C 145.809,565.934 145.476,579.267 134.5,592C 131.895,593.797 129.229,595.297 126.5,596.5C 125.167,596.5 123.833,596.5 122.5,596.5C 116.833,596.5 111.167,596.5 105.5,596.5C 104.48,595.046 103.313,594.713 102,595.5C 100.251,593.247 98.7511,590.914 97.5,588.5C 106.321,593.476 115.321,593.809 124.5,589.5C 127.601,587.431 130.601,585.098 133.5,582.5C 134.149,580.376 134.983,578.376 136,576.5C 135.842,571.871 136.008,567.371 136.5,563C 136.13,558.775 134.797,554.942 132.5,551.5 Z"/></g>
<g><path style="opacity:1" fill="#fbb5b5" d="M 493.5,571.5 C 504.764,575.899 516.43,578.566 528.5,579.5C 533.839,591.648 530.839,601.148 519.5,608C 501.311,611.901 491.311,604.567 489.5,586C 491.071,581.214 492.404,576.38 493.5,571.5 Z"/></g>
<g><path style="opacity:1" fill="#424144" d="M 88.5,576.5 C 89.4584,576.953 90.2917,577.619 91,578.5C 91.9576,582.781 94.1242,586.114 97.5,588.5C 98.7511,590.914 100.251,593.247 102,595.5C 103.313,594.713 104.48,595.046 105.5,596.5C 91.8333,596.5 78.1667,596.5 64.5,596.5C 74.1999,592.447 79.8666,585.114 81.5,574.5C 83.5225,576.173 85.8559,576.84 88.5,576.5 Z"/></g>
<g><path style="opacity:1" fill="#d8d9da" d="M 562.5,578.5 C 563.708,579.234 565.041,579.567 566.5,579.5C 567.832,588.161 569.166,596.828 570.5,605.5C 565.833,605.5 561.167,605.5 556.5,605.5C 558.752,596.573 560.752,587.573 562.5,578.5 Z"/></g>
<g><path style="opacity:0.906" fill="#6d4a92" d="M 48.5,596.5 C 53.8333,596.5 59.1667,596.5 64.5,596.5C 78.1667,596.5 91.8333,596.5 105.5,596.5C 111.167,596.5 116.833,596.5 122.5,596.5C 121.081,597.451 119.415,597.784 117.5,597.5C 96.7105,597.209 75.8772,597.543 55,598.5C 52.723,597.883 50.5563,597.216 48.5,596.5 Z"/></g>
<g><path style="opacity:0.998" fill="#e6e5e5" d="M 1086.5,596.5 C 1131.83,596.333 1177.17,596.5 1222.5,597C 1234.23,600.634 1237.73,608.134 1233,619.5C 1230.19,622.572 1226.86,624.905 1223,626.5C 1177.67,625.167 1132.33,625.167 1087,626.5C 1075.18,623.19 1071.51,615.523 1076,603.5C 1078.7,599.748 1082.2,597.415 1086.5,596.5 Z"/></g>
<g><path style="opacity:1" fill="#a449f3" d="M 43.5,596.5 C 45.1667,596.5 46.8333,596.5 48.5,596.5C 50.5563,597.216 52.723,597.883 55,598.5C 75.8772,597.543 96.7105,597.209 117.5,597.5C 124.037,598.201 130.703,598.868 137.5,599.5C 138.833,623.833 138.833,648.167 137.5,672.5C 135.967,674.289 134.967,676.289 134.5,678.5C 133.178,678.33 132.011,678.663 131,679.5C 95.9,678.837 60.7333,678.17 25.5,677.5C 24.846,659.706 24.1794,642.039 23.5,624.5C 23.5,624.167 23.5,623.833 23.5,623.5C 23.3337,616.492 23.5004,609.492 24,602.5C 24.8563,599.812 26.6896,598.146 29.5,597.5C 34.1196,596.507 38.7863,596.173 43.5,596.5 Z"/></g>
<g><path style="opacity:1" fill="#8d3bdf" d="M 122.5,596.5 C 123.833,596.5 125.167,596.5 126.5,596.5C 132.717,596.028 138.717,596.695 144.5,598.5C 142.871,624.35 141.871,650.35 141.5,676.5C 139.482,678.35 137.649,680.35 136,682.5C 135.667,681.833 135.333,681.167 135,680.5C 100.389,682.489 65.5552,683.156 30.5,682.5C 30.33,683.822 30.6634,684.989 31.5,686C 42.0081,686.17 52.3415,686.67 62.5,687.5C 62.5,688.167 62.5,688.833 62.5,689.5C 62.1667,689.5 61.8333,689.5 61.5,689.5C 61.1667,689.5 60.8333,689.5 60.5,689.5C 52.9129,689.186 45.4129,689.519 38,690.5C 35.8881,689.777 33.8881,688.777 32,687.5C 29.8286,688.595 28.1619,687.928 27,685.5C 26.0862,686.654 25.2529,686.487 24.5,685C 24.8333,684.667 25.1667,684.333 25.5,684C 23.5531,676.442 22.8864,668.609 23.5,660.5C 23.5,648.5 23.5,636.5 23.5,624.5C 24.1794,642.039 24.846,659.706 25.5,677.5C 60.7333,678.17 95.9,678.837 131,679.5C 132.011,678.663 133.178,678.33 134.5,678.5C 134.967,676.289 135.967,674.289 137.5,672.5C 138.833,648.167 138.833,623.833 137.5,599.5C 130.703,598.868 124.037,598.201 117.5,597.5C 119.415,597.784 121.081,597.451 122.5,596.5 Z"/></g>
<g><path style="opacity:1" fill="#7531c7" d="M 144.5,598.5 C 146.306,600.089 147.639,602.089 148.5,604.5C 149.493,609.12 149.827,613.786 149.5,618.5C 148.89,619.391 148.557,620.391 148.5,621.5C 146.52,633.455 145.854,645.788 146.5,658.5C 146.5,659.833 146.5,661.167 146.5,662.5C 147.552,662.351 148.552,662.517 149.5,663C 148.262,663.69 148.262,664.19 149.5,664.5C 150.585,672.434 149.085,679.767 145,686.5C 143.284,685.448 142.284,686.114 142,688.5C 140.755,688.539 139.422,688.205 138,687.5C 136.632,688.703 135.132,689.703 133.5,690.5C 125.89,689.533 118.223,689.2 110.5,689.5C 105.147,686.882 99.8133,686.882 94.5,689.5C 94.1667,689.5 93.8333,689.5 93.5,689.5C 92.8333,689.5 92.1667,689.5 91.5,689.5C 89.777,688.2 87.6103,687.533 85,687.5C 82.3897,687.533 80.223,688.2 78.5,689.5C 77.8333,689.5 77.1667,689.5 76.5,689.5C 72.2853,687.564 67.6186,686.897 62.5,687.5C 52.3415,686.67 42.0081,686.17 31.5,686C 30.6634,684.989 30.33,683.822 30.5,682.5C 65.5552,683.156 100.389,682.489 135,680.5C 135.333,681.167 135.667,681.833 136,682.5C 137.649,680.35 139.482,678.35 141.5,676.5C 141.871,650.35 142.871,624.35 144.5,598.5 Z"/></g>
<g><path style="opacity:0.997" fill="#565659" d="M 169.5,612.5 C 168.513,632.091 168.179,651.757 168.5,671.5C 162.701,670.753 157.701,668.419 153.5,664.5C 152.135,665.807 150.802,665.807 149.5,664.5C 148.262,664.19 148.262,663.69 149.5,663C 148.552,662.517 147.552,662.351 146.5,662.5C 146.5,661.167 146.5,659.833 146.5,658.5C 148.48,646.545 149.146,634.212 148.5,621.5C 148.557,620.391 148.89,619.391 149.5,618.5C 156.027,616.022 162.693,614.022 169.5,612.5 Z"/></g>
<g><path style="opacity:1" fill="#6d2cc1" d="M 78.5,615.5 C 90.6155,614.104 100.282,617.77 107.5,626.5C 115.065,641.644 112.398,654.644 99.5,665.5C 71.2196,673.204 57.8863,662.538 59.5,633.5C 61.0843,629.325 63.4177,625.659 66.5,622.5C 70.3407,619.595 74.3407,617.262 78.5,615.5 Z"/></g>
<g><path style="opacity:0.985" fill="#88878b" d="M 169.5,612.5 C 174.085,611.987 178.418,612.654 182.5,614.5C 183.492,618.783 183.826,623.116 183.5,627.5C 183.365,629.554 184.032,631.221 185.5,632.5C 183.656,634.279 182.99,636.612 183.5,639.5C 183.5,641.167 183.5,642.833 183.5,644.5C 183.5,646.833 183.5,649.167 183.5,651.5C 183.5,653.167 183.5,654.833 183.5,656.5C 183.826,660.884 183.492,665.217 182.5,669.5C 181.646,670.522 180.646,671.355 179.5,672C 175.477,672.371 171.81,672.204 168.5,671.5C 168.179,651.757 168.513,632.091 169.5,612.5 Z"/></g>
<g><path style="opacity:0.557" fill="#89888b" d="M 11.5,623.5 C 11.2172,624.289 10.7172,624.956 10,625.5C 9.83333,631.333 9.66667,637.167 9.5,643C 9.50423,649.207 10.1709,655.04 11.5,660.5C 11.7764,668.643 8.10972,671.643 0.5,669.5C 0.737305,668.209 0.403972,667.209 -0.5,666.5C -0.5,650.167 -0.5,633.833 -0.5,617.5C 3.45481,613.259 7.12148,613.593 10.5,618.5C 11.4519,620.045 11.7852,621.712 11.5,623.5 Z"/></g>
<g><path style="opacity:0.906" fill="#654784" d="M 148.5,621.5 C 149.146,634.212 148.48,646.545 146.5,658.5C 145.854,645.788 146.52,633.455 148.5,621.5 Z"/></g>
<g><path style="opacity:1" fill="#af6ef4" d="M 28.5,623.5 C 29.8259,637.672 29.8259,652.006 28.5,666.5C 27.2008,652.134 27.2008,637.8 28.5,623.5 Z"/></g>
<g><path style="opacity:1" fill="#57585a" d="M 11.5,623.5 C 15.5,623.5 19.5,623.5 23.5,623.5C 23.5,623.833 23.5,624.167 23.5,624.5C 23.5,636.5 23.5,648.5 23.5,660.5C 19.5,660.5 15.5,660.5 11.5,660.5C 10.1709,655.04 9.50423,649.207 9.5,643C 9.66667,637.167 9.83333,631.333 10,625.5C 10.7172,624.956 11.2172,624.289 11.5,623.5 Z"/></g>
<g><path style="opacity:1" fill="#a16982" d="M 76.5,627.5 C 76.5,637.167 76.5,646.833 76.5,656.5C 75.8826,656.389 75.3826,656.056 75,655.5C 74.8333,650.833 74.6667,646.167 74.5,641.5C 74.5067,636.449 75.1734,631.783 76.5,627.5 Z"/></g>
<g><path style="opacity:1" fill="#fec71e" d="M 89.5,633.5 C 90.1667,633.5 90.8333,633.5 91.5,633.5C 91.5,634.833 92.1667,635.5 93.5,635.5C 93.5,636.5 93.5,637.5 93.5,638.5C 94.8734,638.343 96.2068,638.51 97.5,639C 91.1297,642.537 84.6297,647.037 78,652.5C 77.3333,644.167 77.3333,635.833 78,627.5C 81.7488,629.77 85.5822,631.77 89.5,633.5 Z"/></g>
<g><path style="opacity:0.398" fill="#f5b631" d="M 196.5,625.5 C 194.5,627.167 192.5,628.833 190.5,630.5C 189.365,632.213 187.698,632.88 185.5,632.5C 184.032,631.221 183.365,629.554 183.5,627.5C 187.534,625.441 191.534,623.441 195.5,621.5C 195.5,620.5 195.5,619.5 195.5,618.5C 196.833,618.5 198.167,618.5 199.5,618.5C 199.5,620.833 199.5,623.167 199.5,625.5C 198.5,625.5 197.5,625.5 196.5,625.5 Z"/></g>
<g><path style="opacity:0.039" fill="#c48585" d="M 196.5,625.5 C 195.757,628.57 193.757,630.236 190.5,630.5C 192.5,628.833 194.5,627.167 196.5,625.5 Z"/></g>
<g><path style="opacity:1" fill="#a97378" d="M 91.5,633.5 C 92.8333,633.5 93.5,634.167 93.5,635.5C 93.5,634.167 92.8333,633.5 91.5,633.5 Z"/></g>
<g><path style="opacity:1" fill="#eba135" d="M 89.5,633.5 C 85.5822,631.77 81.7488,629.77 78,627.5C 77.3333,635.833 77.3333,644.167 78,652.5C 84.6297,647.037 91.1297,642.537 97.5,639C 96.2068,638.51 94.8734,638.343 93.5,638.5C 93.5,637.5 93.5,636.5 93.5,635.5C 95.4469,636.473 97.4469,637.473 99.5,638.5C 102.167,640.833 102.167,643.167 99.5,645.5C 97.8917,646.318 96.2251,646.985 94.5,647.5C 93.7025,647.957 93.3691,648.624 93.5,649.5C 91.0301,649.654 89.0301,650.654 87.5,652.5C 84.8339,654.722 81.8339,656.722 78.5,658.5C 77.2867,658.253 76.62,657.586 76.5,656.5C 76.5,646.833 76.5,637.167 76.5,627.5C 76.62,626.414 77.2867,625.747 78.5,625.5C 81.4085,627.328 84.4085,628.994 87.5,630.5C 88.6119,631.265 89.2786,632.265 89.5,633.5 Z"/></g>
<g><path style="opacity:0.574" fill="#f6b525" d="M 183.5,639.5 C 188.833,639.5 194.167,639.5 199.5,639.5C 199.5,641.167 199.5,642.833 199.5,644.5C 194.186,644.709 188.853,644.709 183.5,644.5C 183.5,642.833 183.5,641.167 183.5,639.5 Z"/></g>
<g><path style="opacity:1" fill="#ab6a7d" d="M 93.5,649.5 C 91.9699,651.346 89.9699,652.346 87.5,652.5C 89.0301,650.654 91.0301,649.654 93.5,649.5 Z"/></g>
<g><path style="opacity:0.878" fill="#f5b52a" d="M 183.5,651.5 C 189.103,651.633 194.103,653.466 198.5,657C 199.435,659.381 199.768,661.881 199.5,664.5C 195.523,662.003 190.856,659.836 185.5,658C 186.167,657.667 186.833,657.333 187.5,657C 186.207,656.51 184.873,656.343 183.5,656.5C 183.5,654.833 183.5,653.167 183.5,651.5 Z"/></g>
<g><path style="opacity:1" fill="#4d494d" d="M 62.5,687.5 C 67.6186,686.897 72.2853,687.564 76.5,689.5C 71.9246,705.565 66.9246,721.565 61.5,737.5C 57.2156,740.068 52.5489,741.068 47.5,740.5C 47.7394,738.533 47.4061,736.699 46.5,735C 50.0098,725.482 53.0098,716.149 55.5,707C 58.2831,701.484 59.9498,695.651 60.5,689.5C 60.8333,689.5 61.1667,689.5 61.5,689.5C 61.8333,690.833 62.1667,690.833 62.5,689.5C 62.5,688.833 62.5,688.167 62.5,687.5 Z"/></g>
<g><path style="opacity:0.039" fill="#aa5f6a" d="M 91.5,689.5 C 92.1667,689.5 92.8333,689.5 93.5,689.5C 94.1518,706.201 93.4851,722.534 91.5,738.5C 91.5,722.167 91.5,705.833 91.5,689.5 Z"/></g>
<g><path style="opacity:0.996" fill="#4e4c50" d="M 110.5,689.5 C 114.842,705.033 119.509,720.533 124.5,736C 123.738,738.429 122.238,740.262 120,741.5C 116.656,741.039 113.489,740.039 110.5,738.5C 110.072,735.478 108.739,732.978 106.5,731C 107.022,730.439 107.355,729.772 107.5,729C 106.231,724.868 104.565,720.868 102.5,717C 102.833,716 103.167,715 103.5,714C 101.328,709.488 99.9949,704.655 99.5,699.5C 96.2391,699.9 95.5724,698.733 97.5,696C 95.8395,694.158 94.8395,691.991 94.5,689.5C 99.8133,686.882 105.147,686.882 110.5,689.5 Z"/></g>
<g><path style="opacity:0.993" fill="#e6e6e6" d="M 1267.5,733.5 C 1267.5,768.167 1267.5,802.833 1267.5,837.5C 1265.26,842.234 1261.59,845.401 1256.5,847C 1188.83,847.667 1121.17,847.667 1053.5,847C 1050.38,845.941 1047.38,844.608 1044.5,843C 1044.83,842.667 1045.17,842.333 1045.5,842C 1043.79,840.565 1042.62,838.731 1042,836.5C 1041.33,802.5 1041.33,768.5 1042,734.5C 1043.41,729.427 1046.57,725.927 1051.5,724C 1120.17,723.333 1188.83,723.333 1257.5,724C 1262.04,726.048 1265.38,729.215 1267.5,733.5 Z"/></g>
<g><path style="opacity:0.843" fill="#4b4c4f" d="M 91.5,689.5 C 91.5,705.833 91.5,722.167 91.5,738.5C 89.9522,739.794 87.9522,740.461 85.5,740.5C 83.5,740.333 81.5,740.167 79.5,740C 79.8333,739.667 80.1667,739.333 80.5,739C 79.3279,738.581 78.3279,737.915 77.5,737C 78.4548,721.52 78.7881,705.687 78.5,689.5C 80.223,688.2 82.3897,687.533 85,687.5C 87.6103,687.533 89.777,688.2 91.5,689.5 Z"/></g>
<g><path style="opacity:0.016" fill="#be6367" d="M 59.5,739.5 C 60.8333,740.167 60.8333,740.167 59.5,739.5 Z"/></g>
<g><path style="opacity:1" fill="#fefefe" d="M 1130.5,756.5 C 1132.2,756.34 1133.87,756.506 1135.5,757C 1153.35,765.76 1171.02,774.76 1188.5,784C 1192.74,788.061 1192.4,791.728 1187.5,795C 1170.38,803.396 1153.38,812.063 1136.5,821C 1132.37,822.292 1129.21,821.125 1127,817.5C 1126.33,798.833 1126.33,780.167 1127,761.5C 1128,759.677 1129.16,758.01 1130.5,756.5 Z"/></g>
<g><path style="opacity:0.973" fill="#e6e5e5" d="M 1085.5,864.5 C 1131.5,864.333 1177.5,864.5 1223.5,865C 1235.05,869.646 1237.88,877.48 1232,888.5C 1229.12,891.24 1225.78,893.24 1222,894.5C 1176.24,893.669 1130.4,893.169 1084.5,893C 1077.51,891.001 1073.84,886.335 1073.5,879C 1074.59,871.615 1078.59,866.782 1085.5,864.5 Z"/></g>
<g><path style="opacity:0.998" fill="#f0f0f0" d="M 704.5,1155.5 C 698.27,1141.12 687.27,1133.62 671.5,1133C 666.792,1128.99 661.792,1125.49 656.5,1122.5C 656.762,1117.4 657.428,1112.4 658.5,1107.5C 663.214,1107.83 667.88,1107.49 672.5,1106.5C 675.044,1100.72 676.21,1094.72 676,1088.5C 674.492,1086.98 673.658,1085.15 673.5,1083C 675.885,1076.89 678.552,1070.89 681.5,1065C 679.934,1062.09 679.101,1058.92 679,1055.5C 677.937,1039.52 677.437,1023.52 677.5,1007.5C 721.95,965.262 748.284,913.929 756.5,853.5C 774.71,871.556 786.543,893.556 792,919.5C 800.164,963.012 793.664,1004.18 772.5,1043C 828.69,1034.88 878.023,1012.88 920.5,977C 924.022,973.478 927.522,969.978 931,966.5C 932.059,966.63 932.892,967.13 933.5,968C 933.545,1010.52 919.379,1047.69 891,1079.5C 862.592,1109.3 828.426,1129.8 788.5,1141C 761.003,1148.75 733.003,1153.58 704.5,1155.5 Z"/></g>
<g><path style="opacity:0.016" fill="#be6367" d="M 125.5,1001.5 C 125.5,1002.83 124.833,1003.5 123.5,1003.5C 123.5,1002.17 124.167,1001.5 125.5,1001.5 Z"/></g>
<g><path style="opacity:0.937" fill="#ea23d3" d="M 125.5,1001.5 C 134.469,1003.12 143.469,1004.46 152.5,1005.5C 143.918,1066.22 135.585,1126.56 127.5,1186.5C 120.245,1186.11 112.911,1184.77 105.5,1182.5C 101.507,1184.5 99.1737,1183.34 98.5,1179C 100.664,1166.79 102.664,1154.45 104.5,1142C 102.941,1138.62 103.274,1135.45 105.5,1132.5C 106.864,1121.77 108.53,1111.1 110.5,1100.5C 109.986,1098.39 109.653,1096.56 109.5,1095C 110.024,1091.3 111.024,1088.47 112.5,1086.5C 111.806,1082.17 112.306,1077.83 114,1073.5C 116.288,1054.88 118.621,1036.22 121,1017.5C 121.645,1016.35 122.478,1015.35 123.5,1014.5C 122.47,1010.99 122.47,1007.32 123.5,1003.5C 124.833,1003.5 125.5,1002.83 125.5,1001.5 Z"/></g>
<g><path style="opacity:0.985" fill="#6c2efd" d="M 71.5,1042.5 C 73.288,1042.21 74.9547,1042.55 76.5,1043.5C 81.5215,1048.86 86.8549,1053.86 92.5,1058.5C 92.8333,1059.33 93.1667,1060.17 93.5,1061C 82.8728,1071.63 72.5394,1082.63 62.5,1094C 73.2502,1104.75 83.5836,1115.75 93.5,1127C 91.7324,1129.61 89.7324,1132.11 87.5,1134.5C 83.1257,1138.38 78.6257,1142.05 74,1145.5C 70.8365,1143.34 67.6698,1141.17 64.5,1139C 64.8333,1138.67 65.1667,1138.33 65.5,1138C 53.0387,1124.71 40.0387,1111.87 26.5,1099.5C 25.1667,1095.83 25.1667,1092.17 26.5,1088.5C 42.2705,1073.07 57.2705,1057.74 71.5,1042.5 Z"/></g>
<g><path style="opacity:0.985" fill="#6c2efd" d="M 174.5,1042.5 C 176.288,1042.21 177.955,1042.55 179.5,1043.5C 194.533,1058.53 209.533,1073.53 224.5,1088.5C 225.833,1092.17 225.833,1095.83 224.5,1099.5C 209.533,1114.47 194.533,1129.47 179.5,1144.5C 178.667,1144.83 177.833,1145.17 177,1145.5C 171.853,1141.36 166.686,1137.19 161.5,1133C 159.775,1131.05 158.442,1128.88 157.5,1126.5C 167.639,1115.53 177.973,1104.69 188.5,1094C 183.274,1088.61 178.274,1083.11 173.5,1077.5C 169.439,1072.94 164.939,1068.94 160,1065.5C 158.788,1064.22 157.955,1062.72 157.5,1061C 163.243,1054.9 168.91,1048.73 174.5,1042.5 Z"/></g>
<g><path style="opacity:1" fill="#fdb7b7" d="M 626.5,1107.5 C 637.167,1107.5 647.833,1107.5 658.5,1107.5C 657.428,1112.4 656.762,1117.4 656.5,1122.5C 648.643,1125.34 640.81,1128.34 633,1131.5C 630.901,1132.29 628.734,1132.62 626.5,1132.5C 626.5,1124.17 626.5,1115.83 626.5,1107.5 Z"/></g>
<g><path style="opacity:0.984" fill="#fdb5b5" d="M 504.5,1110.5 C 514.833,1110.5 525.167,1110.5 535.5,1110.5C 534.886,1114.14 534.552,1117.8 534.5,1121.5C 524.629,1126.43 514.629,1130.1 504.5,1132.5C 504.5,1125.17 504.5,1117.83 504.5,1110.5 Z"/></g>
<g><path style="opacity:0.989" fill="#302f42" d="M 534.5,1121.5 C 538.804,1124.66 543.137,1127.82 547.5,1131C 556.098,1132.48 564.098,1135.48 571.5,1140C 578.814,1146.13 582.814,1153.96 583.5,1163.5C 554.833,1164.83 526.167,1164.83 497.5,1163.5C 497.5,1153.17 497.5,1142.83 497.5,1132.5C 499.833,1132.5 502.167,1132.5 504.5,1132.5C 514.629,1130.1 524.629,1126.43 534.5,1121.5 Z"/></g>
<g><path style="opacity:0.998" fill="#302f42" d="M 656.5,1122.5 C 661.792,1125.49 666.792,1128.99 671.5,1133C 687.27,1133.62 698.27,1141.12 704.5,1155.5C 705.291,1158.11 705.957,1160.78 706.5,1163.5C 677.833,1164.83 649.167,1164.83 620.5,1163.5C 620.5,1153.17 620.5,1142.83 620.5,1132.5C 622.5,1132.5 624.5,1132.5 626.5,1132.5C 628.734,1132.62 630.901,1132.29 633,1131.5C 640.81,1128.34 648.643,1125.34 656.5,1122.5 Z"/></g>
<g><path style="opacity:0.862" fill="#cbcbcb" d="M 497.5,1163.5 C 526.167,1164.83 554.833,1164.83 583.5,1163.5C 595.833,1163.5 608.167,1163.5 620.5,1163.5C 649.167,1164.83 677.833,1164.83 706.5,1163.5C 756.168,1163.33 805.834,1163.5 855.5,1164C 856.833,1165 856.833,1166 855.5,1167C 676.832,1167.83 498.166,1167.67 319.5,1166.5C 318.098,1165.16 318.431,1164.32 320.5,1164C 379.499,1163.5 438.499,1163.33 497.5,1163.5 Z"/></g>
<g><path style="opacity:1" fill="#fea812" d="M 1043.5,1177.5 C 1067.5,1177.33 1091.5,1177.5 1115.5,1178C 1116.17,1181.66 1116.17,1185.5 1115.5,1189.5C 1092.17,1189.5 1068.83,1189.5 1045.5,1189.5C 1045.5,1191.5 1045.5,1193.5 1045.5,1195.5C 1068.83,1195.5 1092.17,1195.5 1115.5,1195.5C 1115.5,1199.5 1115.5,1203.5 1115.5,1207.5C 1097.17,1207.5 1078.83,1207.5 1060.5,1207.5C 1054.81,1209.52 1051.81,1213.52 1051.5,1219.5C 1050.88,1219.39 1050.38,1219.06 1050,1218.5C 1049.83,1224.33 1049.67,1230.17 1049.5,1236C 1049.5,1242.21 1050.17,1248.04 1051.5,1253.5C 1052.17,1256.17 1052.83,1258.83 1053.5,1261.5C 1055.72,1261.61 1057.72,1262.28 1059.5,1263.5C 1061.64,1265.37 1064.3,1266.04 1067.5,1265.5C 1066.66,1266.94 1065.33,1267.94 1063.5,1268.5C 1058.67,1270.41 1053.67,1271.57 1048.5,1272C 1048.83,1272.33 1049.17,1272.67 1049.5,1273C 1046.85,1273.5 1044.19,1273.66 1041.5,1273.5C 1041.61,1271.62 1041.11,1271.29 1040,1272.5C 1039.5,1272 1039,1271.5 1038.5,1271C 1039.34,1269.99 1039.67,1268.82 1039.5,1267.5C 1036.56,1262.66 1035.06,1257.33 1035,1251.5C 1034.62,1250.94 1034.12,1250.61 1033.5,1250.5C 1033.5,1239.5 1033.5,1228.5 1033.5,1217.5C 1035.47,1207.89 1036.14,1197.89 1035.5,1187.5C 1034.59,1183.79 1035.93,1180.79 1039.5,1178.5C 1040.69,1177.57 1042.02,1177.24 1043.5,1177.5 Z"/></g>
<g><path style="opacity:0.994" fill="#e69815" d="M 1167.5,1261.5 C 1166.29,1262.23 1165.29,1263.23 1164.5,1264.5C 1162.48,1263.19 1161.31,1263.85 1161,1266.5C 1160.44,1265.98 1159.77,1265.64 1159,1265.5C 1156.34,1267 1153.51,1268 1150.5,1268.5C 1148.16,1267.28 1145.83,1267.28 1143.5,1268.5C 1143.71,1269.09 1144.04,1269.59 1144.5,1270C 1140.73,1275.27 1136.4,1280.11 1131.5,1284.5C 1130.31,1285.43 1128.98,1285.76 1127.5,1285.5C 1127.65,1286.55 1127.48,1287.55 1127,1288.5C 1126.67,1288.17 1126.33,1287.83 1126,1287.5C 1119.98,1291.02 1113.82,1293.02 1107.5,1293.5C 1107.5,1302.17 1107.5,1310.83 1107.5,1319.5C 1111.86,1319.07 1115.19,1320.73 1117.5,1324.5C 1117.52,1329.36 1117.52,1334.2 1117.5,1339C 1125.77,1339.93 1131.43,1344.27 1134.5,1352C 1133.66,1353.01 1133.33,1354.18 1133.5,1355.5C 1133.5,1356.83 1133.5,1358.17 1133.5,1359.5C 1105.65,1360.46 1077.65,1360.46 1049.5,1359.5C 1049.5,1358.17 1049.5,1356.83 1049.5,1355.5C 1067.97,1355.8 1086.64,1355.46 1105.5,1354.5C 1109.8,1350.35 1110.46,1345.68 1107.5,1340.5C 1093.51,1339.33 1079.51,1339.17 1065.5,1340C 1063.75,1341.32 1061.75,1341.82 1059.5,1341.5C 1060.59,1339.88 1062.26,1339.05 1064.5,1339C 1065.34,1337.99 1065.67,1336.82 1065.5,1335.5C 1066.22,1335.92 1066.72,1336.58 1067,1337.5C 1078.27,1335.86 1089.77,1334.86 1101.5,1334.5C 1106.34,1331.48 1108.34,1327.15 1107.5,1321.5C 1094.68,1321.34 1082.01,1321.34 1069.5,1321.5C 1071.11,1319.91 1073.11,1318.74 1075.5,1318C 1075.29,1310.11 1075.29,1301.94 1075.5,1293.5C 1072.86,1293.84 1070.52,1293.17 1068.5,1291.5C 1067.91,1291.71 1067.41,1292.04 1067,1292.5C 1063.41,1290.41 1059.57,1288.91 1055.5,1288C 1054.17,1287.33 1054.17,1286.67 1055.5,1286C 1052.26,1284.76 1049.26,1283.1 1046.5,1281C 1046.83,1280.67 1047.17,1280.33 1047.5,1280C 1044.93,1278.27 1042.93,1276.1 1041.5,1273.5C 1044.19,1273.66 1046.85,1273.5 1049.5,1273C 1049.17,1272.67 1048.83,1272.33 1048.5,1272C 1053.67,1271.57 1058.67,1270.41 1063.5,1268.5C 1065.33,1267.94 1066.66,1266.94 1067.5,1265.5C 1085.5,1265.67 1103.5,1265.5 1121.5,1265C 1122.06,1264.62 1122.39,1264.12 1122.5,1263.5C 1124.74,1262.55 1127.07,1261.88 1129.5,1261.5C 1130.17,1258.5 1130.83,1255.5 1131.5,1252.5C 1132.12,1252.61 1132.62,1252.94 1133,1253.5C 1133.17,1247.83 1133.33,1242.17 1133.5,1236.5C 1133.12,1230.13 1133.12,1223.96 1133.5,1218C 1132.91,1217.54 1132.24,1217.37 1131.5,1217.5C 1130.53,1215.55 1129.53,1213.55 1128.5,1211.5C 1127.48,1210.15 1126.14,1209.48 1124.5,1209.5C 1124.39,1208.88 1124.06,1208.38 1123.5,1208C 1120.85,1207.5 1118.19,1207.34 1115.5,1207.5C 1115.5,1203.5 1115.5,1199.5 1115.5,1195.5C 1122.83,1195.5 1130.17,1195.5 1137.5,1195.5C 1137.35,1194.45 1137.52,1193.45 1138,1192.5C 1138.65,1193.7 1139.15,1193.7 1139.5,1192.5C 1138.83,1191.83 1138.17,1191.17 1137.5,1190.5C 1130.2,1189.5 1122.86,1189.17 1115.5,1189.5C 1116.17,1185.5 1116.17,1181.66 1115.5,1178C 1091.5,1177.5 1067.5,1177.33 1043.5,1177.5C 1059.15,1176.17 1075.15,1175.5 1091.5,1175.5C 1107.5,1175.83 1123.5,1176.17 1139.5,1176.5C 1143.26,1178.09 1146.26,1180.59 1148.5,1184C 1147.98,1184.56 1147.64,1185.23 1147.5,1186C 1148.78,1187.89 1149.78,1189.89 1150.5,1192C 1150.17,1195.67 1149.83,1199.33 1149.5,1203C 1159.52,1203.17 1169.52,1203.67 1179.5,1204.5C 1180.5,1205.5 1181.5,1206.5 1182.5,1207.5C 1184.61,1221.87 1183.28,1235.87 1178.5,1249.5C 1176.98,1250.85 1175.65,1252.35 1174.5,1254C 1174.83,1254.33 1175.17,1254.67 1175.5,1255C 1172.88,1257.44 1170.21,1259.61 1167.5,1261.5 Z M 1149.5,1217.5 C 1156.17,1217.5 1162.83,1217.5 1169.5,1217.5C 1169.72,1224.99 1168.72,1232.33 1166.5,1239.5C 1164.52,1240.11 1164.19,1241.11 1165.5,1242.5C 1161.34,1247.33 1156.34,1251 1150.5,1253.5C 1149.8,1241.03 1149.46,1229.03 1149.5,1217.5 Z"/></g>
<g><path style="opacity:1" fill="#c8840d" d="M 1115.5,1189.5 C 1122.86,1189.17 1130.2,1189.5 1137.5,1190.5C 1138.17,1191.17 1138.83,1191.83 1139.5,1192.5C 1139.15,1193.7 1138.65,1193.7 1138,1192.5C 1137.52,1193.45 1137.35,1194.45 1137.5,1195.5C 1130.17,1195.5 1122.83,1195.5 1115.5,1195.5C 1092.17,1195.5 1068.83,1195.5 1045.5,1195.5C 1045.5,1193.5 1045.5,1191.5 1045.5,1189.5C 1068.83,1189.5 1092.17,1189.5 1115.5,1189.5 Z"/></g>
<g><path style="opacity:0.993" fill="#e59717" d="M 1035.5,1187.5 C 1036.14,1197.89 1035.47,1207.89 1033.5,1217.5C 1026.83,1217.5 1020.17,1217.5 1013.5,1217.5C 1013.04,1226.59 1014.7,1235.26 1018.5,1243.5C 1020.85,1246.02 1023.35,1248.35 1026,1250.5C 1026.33,1250.17 1026.67,1249.83 1027,1249.5C 1028.71,1250.94 1030.54,1252.28 1032.5,1253.5C 1033.39,1252.68 1033.72,1251.68 1033.5,1250.5C 1034.12,1250.61 1034.62,1250.94 1035,1251.5C 1035.06,1257.33 1036.56,1262.66 1039.5,1267.5C 1032.57,1269.25 1026.24,1267.91 1020.5,1263.5C 1019.91,1263.71 1019.41,1264.04 1019,1264.5C 1016.1,1263.12 1014.27,1261.46 1013.5,1259.5C 1012.83,1257.5 1011.5,1256.17 1009.5,1255.5C 1007.46,1252.61 1005.13,1249.78 1002.5,1247C 1003.52,1245.95 1003.68,1244.78 1003,1243.5C 1002.67,1243.83 1002.33,1244.17 1002,1244.5C 1001.9,1240.89 1000.73,1237.73 998.5,1235C 999.033,1226.08 999.7,1216.91 1000.5,1207.5C 1001.5,1206.5 1002.5,1205.5 1003.5,1204.5C 1013.48,1203.5 1023.48,1203.17 1033.5,1203.5C 1032.89,1197.73 1033.55,1192.4 1035.5,1187.5 Z"/></g>
<g><path style="opacity:1" fill="#e76326" d="M 1060.5,1207.5 C 1078.83,1207.5 1097.17,1207.5 1115.5,1207.5C 1118.19,1207.34 1120.85,1207.5 1123.5,1208C 1124.06,1208.38 1124.39,1208.88 1124.5,1209.5C 1122.83,1209.5 1121.17,1209.5 1119.5,1209.5C 1099.47,1210.15 1079.8,1209.49 1060.5,1207.5 Z"/></g>
<g><path style="opacity:1" fill="#de4132" d="M 1060.5,1207.5 C 1079.8,1209.49 1099.47,1210.15 1119.5,1209.5C 1118.63,1214.83 1117.63,1220.16 1116.5,1225.5C 1115,1230 1112,1232.67 1107.5,1233.5C 1104.38,1233.03 1101.71,1231.7 1099.5,1229.5C 1094.41,1226.29 1089.08,1223.62 1083.5,1221.5C 1083.19,1220.26 1082.69,1220.26 1082,1221.5C 1081.5,1231.49 1081.33,1241.49 1081.5,1251.5C 1071.5,1251.5 1061.5,1251.5 1051.5,1251.5C 1051.5,1240.83 1051.5,1230.17 1051.5,1219.5C 1051.81,1213.52 1054.81,1209.52 1060.5,1207.5 Z"/></g>
<g><path style="opacity:1" fill="#c83c2d" d="M 1119.5,1209.5 C 1121.17,1209.5 1122.83,1209.5 1124.5,1209.5C 1126.14,1209.48 1127.48,1210.15 1128.5,1211.5C 1129.53,1213.55 1130.53,1215.55 1131.5,1217.5C 1131.5,1229.17 1131.5,1240.83 1131.5,1252.5C 1130.83,1255.5 1130.17,1258.5 1129.5,1261.5C 1127.07,1261.88 1124.74,1262.55 1122.5,1263.5C 1101.5,1263.5 1080.5,1263.5 1059.5,1263.5C 1057.72,1262.28 1055.72,1261.61 1053.5,1261.5C 1052.83,1258.83 1052.17,1256.17 1051.5,1253.5C 1051.5,1252.83 1051.5,1252.17 1051.5,1251.5C 1061.5,1251.5 1071.5,1251.5 1081.5,1251.5C 1090.34,1247.69 1099.01,1243.36 1107.5,1238.5C 1108.17,1237.83 1108.83,1237.17 1109.5,1236.5C 1108.39,1235.73 1107.72,1234.73 1107.5,1233.5C 1112,1232.67 1115,1230 1116.5,1225.5C 1117.63,1220.16 1118.63,1214.83 1119.5,1209.5 Z"/></g>
<g><path style="opacity:1" fill="#f1851b" d="M 1051.5,1219.5 C 1051.5,1230.17 1051.5,1240.83 1051.5,1251.5C 1051.5,1252.17 1051.5,1252.83 1051.5,1253.5C 1050.17,1248.04 1049.5,1242.21 1049.5,1236C 1049.67,1230.17 1049.83,1224.33 1050,1218.5C 1050.38,1219.06 1050.88,1219.39 1051.5,1219.5 Z"/></g>
<g><path style="opacity:1" fill="#dc701b" d="M 1131.5,1217.5 C 1132.24,1217.37 1132.91,1217.54 1133.5,1218C 1133.12,1223.96 1133.12,1230.13 1133.5,1236.5C 1133.33,1242.17 1133.17,1247.83 1133,1253.5C 1132.62,1252.94 1132.12,1252.61 1131.5,1252.5C 1131.5,1240.83 1131.5,1229.17 1131.5,1217.5 Z"/></g>
<g><path style="opacity:1" fill="#fbf5f4" d="M 1083.5,1221.5 C 1089.08,1223.62 1094.41,1226.29 1099.5,1229.5C 1099.28,1230.73 1098.61,1231.73 1097.5,1232.5C 1092.73,1234.89 1088.06,1237.22 1083.5,1239.5C 1083.5,1233.5 1083.5,1227.5 1083.5,1221.5 Z"/></g>
<g><path style="opacity:1" fill="#d3c5c4" d="M 1083.5,1221.5 C 1083.5,1227.5 1083.5,1233.5 1083.5,1239.5C 1088.06,1237.22 1092.73,1234.89 1097.5,1232.5C 1098.61,1231.73 1099.28,1230.73 1099.5,1229.5C 1101.71,1231.7 1104.38,1233.03 1107.5,1233.5C 1107.72,1234.73 1108.39,1235.73 1109.5,1236.5C 1108.83,1237.17 1108.17,1237.83 1107.5,1238.5C 1099.01,1243.36 1090.34,1247.69 1081.5,1251.5C 1081.33,1241.49 1081.5,1231.49 1082,1221.5C 1082.69,1220.26 1083.19,1220.26 1083.5,1221.5 Z"/></g>
<g><path style="opacity:0.039" fill="#ac5f6a" d="M 1009.5,1255.5 C 1011.5,1256.17 1012.83,1257.5 1013.5,1259.5C 1011.74,1258.93 1010.08,1258.09 1008.5,1257C 1009.06,1256.62 1009.39,1256.12 1009.5,1255.5 Z"/></g>
<g><path style="opacity:0.016" fill="#be6367" d="M 1167.5,1261.5 C 1168.83,1262.17 1168.83,1262.17 1167.5,1261.5 Z"/></g>
<g><path style="opacity:1" fill="#dc6d1d" d="M 1059.5,1263.5 C 1080.5,1263.5 1101.5,1263.5 1122.5,1263.5C 1122.39,1264.12 1122.06,1264.62 1121.5,1265C 1103.5,1265.5 1085.5,1265.67 1067.5,1265.5C 1064.3,1266.04 1061.64,1265.37 1059.5,1263.5 Z"/></g>
<g><path style="opacity:1" fill="#494d54" d="M 527.5,1277.5 C 527.187,1280.25 527.52,1282.91 528.5,1285.5C 531.722,1294.83 534.722,1304.16 537.5,1313.5C 543.271,1314.11 548.604,1313.45 553.5,1311.5C 563.461,1312.68 573.461,1313.68 583.5,1314.5C 585.261,1315.92 586.594,1317.58 587.5,1319.5C 587.827,1324.21 587.493,1328.88 586.5,1333.5C 575.833,1341.5 565.167,1349.5 554.5,1357.5C 554.167,1358.83 553.833,1360.17 553.5,1361.5C 556.702,1371.44 559.702,1381.44 562.5,1391.5C 563.491,1395.45 563.824,1399.45 563.5,1403.5C 569.5,1403.5 575.5,1403.5 581.5,1403.5C 582.765,1404.51 583.431,1406.01 583.5,1408C 583.333,1409.5 583.167,1411 583,1412.5C 546.844,1413.8 510.344,1413.8 473.5,1412.5C 471.995,1411.16 471.328,1409.49 471.5,1407.5C 472.406,1405.58 473.739,1403.92 475.5,1402.5C 480.223,1399.48 484.89,1396.48 489.5,1393.5C 493.18,1390.16 497.18,1387.16 501.5,1384.5C 505.281,1382.28 509.281,1380.61 513.5,1379.5C 519.434,1381.13 524.768,1383.8 529.5,1387.5C 536.75,1392.72 544.083,1398.05 551.5,1403.5C 553.94,1402.73 555.273,1401.06 555.5,1398.5C 555.36,1396.97 554.693,1395.97 553.5,1395.5C 551.641,1385.26 548.974,1375.26 545.5,1365.5C 545.5,1362.83 545.5,1360.17 545.5,1357.5C 546.218,1353.76 548.218,1350.76 551.5,1348.5C 560.066,1343.27 568.066,1337.27 575.5,1330.5C 576.689,1329.57 578.022,1329.24 579.5,1329.5C 579.5,1327.5 579.5,1325.5 579.5,1323.5C 574.167,1323.5 568.833,1323.5 563.5,1323.5C 555.231,1321.53 546.565,1320.86 537.5,1321.5C 534.465,1321.48 532.132,1320.15 530.5,1317.5C 527.643,1309.89 524.643,1302.55 521.5,1295.5C 520.849,1289.88 519.182,1284.54 516.5,1279.5C 515.065,1277.6 513.398,1277.27 511.5,1278.5C 505.964,1292.11 500.631,1305.78 495.5,1319.5C 493.718,1320.72 491.718,1321.39 489.5,1321.5C 481.097,1320.87 473.097,1321.53 465.5,1323.5C 464.833,1323.5 464.167,1323.5 463.5,1323.5C 458.167,1323.5 452.833,1323.5 447.5,1323.5C 447.5,1325.5 447.5,1327.5 447.5,1329.5C 448.978,1329.24 450.311,1329.57 451.5,1330.5C 461.349,1337.93 471.015,1345.59 480.5,1353.5C 481.833,1358.83 481.833,1364.17 480.5,1369.5C 477.167,1379.5 473.833,1389.5 470.5,1399.5C 469.066,1400.59 468.066,1401.92 467.5,1403.5C 465.718,1402.28 463.718,1401.61 461.5,1401.5C 461.714,1399.86 461.38,1398.36 460.5,1397C 464.653,1385.71 468.319,1374.21 471.5,1362.5C 469.63,1357.8 466.297,1354.63 461.5,1353C 462.167,1352.67 462.833,1352.33 463.5,1352C 459.041,1351.03 456.208,1348.86 455,1345.5C 453.927,1346.28 452.76,1346.11 451.5,1345C 448.247,1341.37 444.58,1338.2 440.5,1335.5C 434.851,1327.72 435.851,1320.72 443.5,1314.5C 458.167,1313.17 472.833,1311.83 487.5,1310.5C 489.884,1306.68 491.884,1302.68 493.5,1298.5C 493.291,1297.91 492.957,1297.41 492.5,1297C 495.876,1288.04 499.542,1279.2 503.5,1270.5C 508.56,1267.66 513.893,1266.99 519.5,1268.5C 522.641,1271.29 525.307,1274.29 527.5,1277.5 Z M 521.5,1395.5 C 523.866,1397.51 526.532,1399.18 529.5,1400.5C 526.833,1400.83 524.167,1401.17 521.5,1401.5C 518.41,1401.48 515.743,1400.81 513.5,1399.5C 515.431,1398.74 516.931,1397.41 518,1395.5C 518.986,1396.17 520.153,1396.17 521.5,1395.5 Z"/></g>
<g><path style="opacity:1" fill="#eeb132" d="M 553.5,1311.5 C 548.604,1313.45 543.271,1314.11 537.5,1313.5C 534.722,1304.16 531.722,1294.83 528.5,1285.5C 527.52,1282.91 527.187,1280.25 527.5,1277.5C 528.425,1274.74 530.425,1273.41 533.5,1273.5C 537.266,1274.25 540.266,1276.25 542.5,1279.5C 545.984,1290.29 549.651,1300.95 553.5,1311.5 Z"/></g>
<g><path style="opacity:1" fill="#f5f5f4" d="M 521.5,1295.5 C 519.145,1301.01 516.479,1306.51 513.5,1312C 513.854,1313.63 513.854,1315.46 513.5,1317.5C 507.64,1319.1 501.64,1319.76 495.5,1319.5C 500.631,1305.78 505.964,1292.11 511.5,1278.5C 513.398,1277.27 515.065,1277.6 516.5,1279.5C 519.182,1284.54 520.849,1289.88 521.5,1295.5 Z"/></g>
<g><path style="opacity:1" fill="#fea811" d="M 1077.5,1295.5 C 1086.88,1296.02 1094.54,1300.02 1100.5,1307.5C 1102.55,1311.22 1103.55,1315.22 1103.5,1319.5C 1094.83,1319.5 1086.17,1319.5 1077.5,1319.5C 1077.5,1311.5 1077.5,1303.5 1077.5,1295.5 Z"/></g>
<g><path style="opacity:1" fill="#f0b532" d="M 521.5,1295.5 C 524.643,1302.55 527.643,1309.89 530.5,1317.5C 532.132,1320.15 534.465,1321.48 537.5,1321.5C 545.769,1323.47 554.435,1324.14 563.5,1323.5C 568.833,1323.5 574.167,1323.5 579.5,1323.5C 579.5,1325.5 579.5,1327.5 579.5,1329.5C 578.022,1329.24 576.689,1329.57 575.5,1330.5C 568.066,1337.27 560.066,1343.27 551.5,1348.5C 548.218,1350.76 546.218,1353.76 545.5,1357.5C 544.252,1358.33 543.585,1359.67 543.5,1361.5C 543.585,1363.33 544.252,1364.67 545.5,1365.5C 548.974,1375.26 551.641,1385.26 553.5,1395.5C 553.631,1396.38 553.298,1397.04 552.5,1397.5C 546.919,1392.24 540.586,1388.24 533.5,1385.5C 531.667,1385.59 530.334,1386.25 529.5,1387.5C 524.768,1383.8 519.434,1381.13 513.5,1379.5C 509.281,1380.61 505.281,1382.28 501.5,1384.5C 497.18,1387.16 493.18,1390.16 489.5,1393.5C 492.621,1383.35 495.288,1373.02 497.5,1362.5C 497.167,1360.83 496.833,1359.17 496.5,1357.5C 488.735,1350.4 480.401,1344.07 471.5,1338.5C 469.167,1336.17 466.833,1333.83 464.5,1331.5C 463.52,1328.91 463.187,1326.25 463.5,1323.5C 464.167,1323.5 464.833,1323.5 465.5,1323.5C 473.903,1324.13 481.903,1323.47 489.5,1321.5C 491.718,1321.39 493.718,1320.72 495.5,1319.5C 501.64,1319.76 507.64,1319.1 513.5,1317.5C 513.854,1315.46 513.854,1313.63 513.5,1312C 516.479,1306.51 519.145,1301.01 521.5,1295.5 Z"/></g>
<g><path style="opacity:1" fill="#9a7f42" d="M 489.5,1321.5 C 481.903,1323.47 473.903,1324.13 465.5,1323.5C 473.097,1321.53 481.097,1320.87 489.5,1321.5 Z"/></g>
<g><path style="opacity:1" fill="#807047" d="M 537.5,1321.5 C 546.565,1320.86 555.231,1321.53 563.5,1323.5C 554.435,1324.14 545.769,1323.47 537.5,1321.5 Z"/></g>
<g><path style="opacity:1" fill="#ecb032" d="M 587.5,1319.5 C 592.214,1319.17 596.88,1319.51 601.5,1320.5C 603.351,1322.18 605.018,1324.02 606.5,1326C 605.723,1329.44 604.723,1332.44 603.5,1335C 599.468,1336.69 595.968,1339.19 593,1342.5C 592.667,1342.17 592.333,1341.83 592,1341.5C 591.667,1342.5 591.333,1343.5 591,1344.5C 590.667,1344.17 590.333,1343.83 590,1343.5C 589.535,1344.93 588.701,1346.1 587.5,1347C 582.697,1349.97 578.03,1353.14 573.5,1356.5C 572.277,1358.46 570.944,1360.29 569.5,1362C 571.24,1365.89 572.906,1369.89 574.5,1374C 574.167,1375 573.833,1376 573.5,1377C 576.012,1382.52 578.345,1388.19 580.5,1394C 580.167,1394.33 579.833,1394.67 579.5,1395C 581.321,1397.46 581.988,1400.29 581.5,1403.5C 575.5,1403.5 569.5,1403.5 563.5,1403.5C 563.824,1399.45 563.491,1395.45 562.5,1391.5C 559.702,1381.44 556.702,1371.44 553.5,1361.5C 553.833,1360.17 554.167,1358.83 554.5,1357.5C 565.167,1349.5 575.833,1341.5 586.5,1333.5C 587.493,1328.88 587.827,1324.21 587.5,1319.5 Z"/></g>
<g><path style="opacity:1" fill="#fea913" d="M 1065.5,1335.5 C 1065.79,1331.89 1065.46,1328.39 1064.5,1325C 1066.06,1323.59 1067.73,1322.42 1069.5,1321.5C 1082.01,1321.34 1094.68,1321.34 1107.5,1321.5C 1108.34,1327.15 1106.34,1331.48 1101.5,1334.5C 1089.77,1334.86 1078.27,1335.86 1067,1337.5C 1066.72,1336.58 1066.22,1335.92 1065.5,1335.5 Z"/></g>
<g><path style="opacity:1" fill="#f6f5f4" d="M 463.5,1323.5 C 463.187,1326.25 463.52,1328.91 464.5,1331.5C 466.833,1333.83 469.167,1336.17 471.5,1338.5C 480.401,1344.07 488.735,1350.4 496.5,1357.5C 496.833,1359.17 497.167,1360.83 497.5,1362.5C 495.288,1373.02 492.621,1383.35 489.5,1393.5C 484.89,1396.48 480.223,1399.48 475.5,1402.5C 473.739,1403.92 472.406,1405.58 471.5,1407.5C 469.5,1406.83 468.167,1405.5 467.5,1403.5C 468.066,1401.92 469.066,1400.59 470.5,1399.5C 473.833,1389.5 477.167,1379.5 480.5,1369.5C 481.833,1364.17 481.833,1358.83 480.5,1353.5C 471.015,1345.59 461.349,1337.93 451.5,1330.5C 450.311,1329.57 448.978,1329.24 447.5,1329.5C 447.5,1327.5 447.5,1325.5 447.5,1323.5C 452.833,1323.5 458.167,1323.5 463.5,1323.5 Z"/></g>
<g><path style="opacity:1" fill="#fda812" d="M 1049.5,1355.5 C 1049.6,1350.3 1051.6,1345.97 1055.5,1342.5C 1056.69,1341.57 1058.02,1341.24 1059.5,1341.5C 1061.75,1341.82 1063.75,1341.32 1065.5,1340C 1079.51,1339.17 1093.51,1339.33 1107.5,1340.5C 1110.46,1345.68 1109.8,1350.35 1105.5,1354.5C 1086.64,1355.46 1067.97,1355.8 1049.5,1355.5 Z"/></g>
<g><path style="opacity:0.039" fill="#b26069" d="M 1049.5,1355.5 C 1049.5,1356.83 1049.5,1358.17 1049.5,1359.5C 1048.41,1359.38 1047.75,1358.71 1047.5,1357.5C 1047.75,1356.29 1048.41,1355.62 1049.5,1355.5 Z"/></g>
<g><path style="opacity:0.039" fill="#b36069" d="M 1133.5,1355.5 C 1134.59,1355.62 1135.25,1356.29 1135.5,1357.5C 1135.25,1358.71 1134.59,1359.38 1133.5,1359.5C 1133.5,1358.17 1133.5,1356.83 1133.5,1355.5 Z"/></g>
<g><path style="opacity:0.996" fill="#9b8041" d="M 545.5,1357.5 C 545.5,1360.17 545.5,1362.83 545.5,1365.5C 544.252,1364.67 543.585,1363.33 543.5,1361.5C 543.585,1359.67 544.252,1358.33 545.5,1357.5 Z"/></g>
<g><path style="opacity:1" fill="#eee7df" d="M 553.5,1395.5 C 554.693,1395.97 555.36,1396.97 555.5,1398.5C 555.273,1401.06 553.94,1402.73 551.5,1403.5C 544.083,1398.05 536.75,1392.72 529.5,1387.5C 530.334,1386.25 531.667,1385.59 533.5,1385.5C 540.586,1388.24 546.919,1392.24 552.5,1397.5C 553.298,1397.04 553.631,1396.38 553.5,1395.5 Z"/></g>
<g><path style="opacity:1" fill="#e6ad32" d="M 521.5,1395.5 C 520.153,1396.17 518.986,1396.17 518,1395.5C 516.931,1397.41 515.431,1398.74 513.5,1399.5C 507.311,1403.19 500.645,1404.19 493.5,1402.5C 498.833,1398.5 504.167,1394.5 509.5,1390.5C 515.088,1388.56 519.088,1390.22 521.5,1395.5 Z"/></g>
<g><path style="opacity:1" fill="#4b4b53" d="M 599.5,1401.5 C 604.61,1400.78 607.61,1402.95 608.5,1408C 608.868,1409.47 608.368,1410.97 607,1412.5C 606.667,1412.17 606.333,1411.83 606,1411.5C 603.589,1414.1 601.089,1414.1 598.5,1411.5C 597.035,1407.9 597.368,1404.57 599.5,1401.5 Z"/></g>
<g><path style="opacity:0.016" fill="#be6367" d="M 595.5,1408.5 C 596.833,1409.17 596.833,1409.17 595.5,1408.5 Z"/></g>
</svg>
